<svg xmlns="http://www.w3.org/2000/svg" viewBox="0 0 725.37 592.64"><defs><style>.cls-1{fill:#fff;}</style></defs><title>bah-software</title><g id="Capa_2" data-name="Capa 2"><g id="Capa_1-2" data-name="Capa 1"><path class="cls-1" d="M117.18,238.93H0V1.47C7.83,1.24,15.59.82,23.35.81Q198.57.75,373.78.76,534.24.58,694.69,0a89.6,89.6,0,0,1,11.48.31C720.35,2.13,725.29,7.56,725.32,22c0,16-.63,32-.59,48,.12,47.64.46,95.29.64,142.93a88.48,88.48,0,0,1-.92,12.91c-1.45,10-7.55,15.24-17.71,15.2-16.32,0-32.63-.45-49-.47-12.16,0-24.32.44-36.48.48-11.2,0-16.78-5.23-16.79-16.44,0-28.16.27-56.31.43-84.46,0-.5,0-1,0-1.5.21-15.51-4.53-20.53-20-20.54q-223.71-.06-447.41,0c-1.34,0-2.67,0-4,.1-11,.7-16.19,5.63-16.35,16.65-.23,16,.12,32,.15,48,0,17.66,0,35.32,0,53C117.37,236.7,117.26,237.66,117.18,238.93Z"/><path class="cls-1" d="M5.45,294.21h109c0,2.14,0,4.08,0,6,.27,17.65-.37,35.38,1.06,52.93,1.87,22.93,18.29,38.9,41.18,39.82q41.42,1.68,82.93.78c30.35-.62,59.51,3.7,86.24,18.51,13.14,7.28,25.22,16.48,38.35,25.19,4.33-3.49,9.71-8.13,15.41-12.35a153.37,153.37,0,0,1,77-30c8.43-.85,16.95-1,25.42-1.05,27.34-.12,54.67,0,82,0,27.67,0,47.12-19.3,47.34-47,.12-15.66,0-31.33,0-47,0-1.8,0-3.59,0-5.67,1.69-.12,3-.28,4.26-.28,32.5,0,65,.06,97.5-.1,3.92,0,5.18,1.17,5.39,5,.83,15.44,3,30.89,2.7,46.31-.69,39.45-12.55,75.26-38.93,105.25-13.83,15.73-30.52,27.82-49.64,37-25.48,12.2-52.22,15.85-80,15.56-25.16-.26-50.33.09-75.49-.22-16.3-.19-29.67,5.64-41.06,17.16-22.72,23-45.68,45.77-68.54,68.63-1.28,1.28-2.61,2.5-4.25,4.07-6.58-6.39-13.05-12.54-19.38-18.84-19.14-19-38-38.32-57.41-57.08-9.4-9.1-21.28-13.56-34.44-13.66-32.32-.23-64.7.86-97-.59-51.52-2.33-92.74-25-122.48-67.41-18.8-26.82-27.49-56.91-27.43-89.6,0-16,0-32,0-48C5.21,296.49,5.35,295.52,5.45,294.21Z"/></g></g></svg>